<svg width="166" height="202" viewBox="0 0 166 202" fill="none" xmlns="http://www.w3.org/2000/svg">
<g filter="url(#filter0_d_1145_560)">
<rect x="4.00195" y="0.549316" width="158" height="193" fill="url(#paint0_linear_1145_560)"/>
<rect x="4.50195" y="1.04932" width="157" height="192" stroke="#398D8D"/>
</g>
<path d="M49.4648 138.501C50.2965 139.016 58.5383 128.129 60.0688 120.938H56.7602H56.4262C54.7447 126.265 53.584 128.635 49.8013 132.867C49.1353 128.331 48.7663 122.536 49.1386 122.263C49.5109 121.991 45.4883 124.914 45.4883 124.914C45.6605 134.351 48.3542 139.167 49.4648 138.501Z" fill="#398D8D"/>
<path d="M56.7602 120.938H56.4262M56.4262 120.938H60.0688C58.5383 128.129 50.2965 139.016 49.4648 138.501C48.3542 139.167 45.6605 134.351 45.4883 124.914C45.4883 124.914 49.5109 121.991 49.1386 122.263C48.7663 122.536 49.1353 128.331 49.8013 132.867C53.584 128.635 54.7447 126.265 56.4262 120.938Z" stroke="#398D8D" stroke-width="0.477266"/>
<path d="M71.7304 138.126C72.7074 138.174 74.6384 124.656 72.4909 117.625L69.5015 119.281L69.305 119.39C70.4166 124.865 70.5505 127.5 69.2938 133.036C66.512 129.391 63.3801 124.502 63.5735 124.083C63.7669 123.664 61.666 128.171 61.666 128.171C66.3913 136.341 71.0817 139.247 71.7304 138.126Z" fill="#398D8D"/>
<path d="M69.5015 119.281L69.305 119.39M69.305 119.39L72.4909 117.625C74.6384 124.656 72.7074 138.174 71.7304 138.126C71.0818 139.247 66.3913 136.341 61.666 128.171C61.666 128.171 63.7669 123.664 63.5735 124.083C63.3801 124.502 66.512 129.391 69.2938 133.036C70.5505 127.5 70.4166 124.865 69.305 119.39Z" stroke="#398D8D" stroke-width="0.477266"/>
<path d="M90.1813 127.274C90.1813 126.239 89.5652 120.937 86.2515 115.967L82.275 115.967C83.6005 118.618 85.2574 119.943 85.8339 123.676C81.7794 121.534 76.8853 118.41 76.885 117.949C76.8847 117.487 76.8687 122.46 76.8687 122.46C84.5859 127.894 90.0627 128.564 90.1813 127.274Z" fill="#398D8D" stroke="#398D8D" stroke-width="0.477266"/>
<path d="M64.7115 116.961L65.3744 116.295C34.225 122.595 28.2603 74.2105 65.043 77.5241L64.3801 76.8647" stroke="#3AB155" stroke-width="3.10223"/>
<path d="M29.9553 127.201C30.3676 128.088 43.2337 123.515 48.4617 118.345L45.4174 116.345C41.0869 119.874 38.8155 121.217 33.33 122.677C35.2645 118.52 38.138 113.475 38.5989 113.451C39.0599 113.428 34.0925 113.662 34.0925 113.662C29.0546 121.643 28.6616 127.147 29.9553 127.201Z" fill="#398D8D"/>
<path d="M45.8626 116.631L45.4174 116.345M45.4174 116.345L48.4617 118.345C43.2337 123.515 30.3676 128.088 29.9553 127.201C28.6616 127.147 29.0546 121.643 34.0925 113.662C34.0925 113.662 39.0599 113.428 38.5989 113.451C38.138 113.475 35.2645 118.52 33.33 122.677C38.8155 121.217 41.0869 119.874 45.4174 116.345Z" stroke="#398D8D" stroke-width="0.477266"/>
<path d="M18.0113 109.012C17.9727 109.989 31.5067 111.8 38.519 109.59L36.725 106.42C31.2607 107.58 28.6264 107.738 23.0798 106.53C26.7 103.716 31.5613 100.541 31.9821 100.731C32.4029 100.92 27.8771 98.8594 27.8771 98.8594C19.7492 103.657 16.885 108.373 18.0113 109.012Z" fill="#398D8D"/>
<path d="M36.7241 106.42L36.725 106.42M36.725 106.42L38.519 109.59C31.5067 111.8 17.9727 109.989 18.0113 109.012C16.885 108.373 19.7492 103.657 27.8771 98.8594C27.8771 98.8594 32.4029 100.92 31.9821 100.731C31.5613 100.541 26.7 103.716 23.0798 106.53C28.6264 107.738 31.2607 107.58 36.725 106.42Z" stroke="#398D8D" stroke-width="0.477266"/>
<path d="M18.2424 86.4711C17.6734 87.2668 27.9898 96.2121 35.0637 98.2159L35.3869 94.5783C30.1831 92.5474 27.8135 91.2352 23.8411 87.1803C28.4119 86.8164 34.2182 86.8323 34.4657 87.2219C34.7132 87.6115 32.0625 83.4039 32.0625 83.4039C22.6352 82.9502 17.6518 85.3188 18.2424 86.4711Z" fill="#398D8D"/>
<path d="M35.3054 94.5788L35.3869 94.5783M35.3869 94.5783L35.0637 98.2159C27.9898 96.2121 17.6734 87.2668 18.2424 86.4711C17.6518 85.3188 22.6352 82.9502 32.0625 83.4039C32.0625 83.4039 34.7132 87.6115 34.4657 87.2219C34.2182 86.8323 28.4119 86.8164 23.8411 87.1803C27.8135 91.2352 30.1831 92.5474 35.3869 94.5783Z" stroke="#398D8D" stroke-width="0.477266"/>
<path d="M28.151 66.6441C27.2807 67.0906 32.3512 79.7688 37.7204 84.7914L39.526 81.7952L39.6005 81.6716C35.9059 77.4818 34.475 75.2645 32.8023 69.84C37.0317 71.6111 42.1852 74.2859 42.2267 74.7456C42.2682 75.2052 41.8402 70.2508 41.8402 70.2508C33.6688 65.5276 28.1541 65.3493 28.151 66.6441Z" fill="#398D8D"/>
<path d="M39.526 81.7952L39.6005 81.6716M39.6005 81.6716L37.7204 84.7914C32.3512 79.7688 27.2807 67.0906 28.151 66.6441C28.1541 65.3493 33.6688 65.5276 41.8402 70.2508C41.8402 70.2508 42.2682 75.2052 42.2267 74.7456C42.1852 74.2859 37.0317 71.6111 32.8023 69.84C34.475 75.2645 35.9059 77.4818 39.6005 81.6716Z" stroke="#398D8D" stroke-width="0.477266"/>
<path d="M47.9005 55.7743C46.9279 55.6696 44.2037 69.0496 45.933 76.1956L49.2198 74.6195C48.4327 69.0891 48.4521 66.4514 50.0328 60.9994C52.595 64.802 55.4333 69.8673 55.2155 70.2743C54.9977 70.6812 57.3607 66.3055 57.3607 66.3055C53.125 57.8711 48.614 54.6938 47.9005 55.7743Z" fill="#398D8D" stroke="#398D8D" stroke-width="0.477266"/>
<path d="M69.6424 54.9247C68.8251 54.3872 60.2884 65.0442 58.5617 72.1908L62.391 72.2907C64.2177 67.0118 65.2547 64.6742 69.1518 60.5468C69.6934 65.0999 69.9037 70.9024 69.5241 71.1649C69.1444 71.4274 73.2456 68.6148 73.2456 68.6148C73.3316 59.177 70.7708 54.2896 69.6424 54.9247Z" fill="#398D8D"/>
<path d="M62.2054 72.2906L62.391 72.2907M62.391 72.2907L58.5617 72.1908C60.2884 65.0442 68.8251 54.3872 69.6424 54.9247C70.7708 54.2896 73.3316 59.177 73.2456 68.6148C73.2456 68.6148 69.1444 71.4274 69.5241 71.1649C69.9037 70.9024 69.6934 65.0999 69.1518 60.5468C65.2547 64.6742 64.2177 67.0118 62.391 72.2907Z" stroke="#398D8D" stroke-width="0.477266"/>
<path d="M89.4233 65.1287C88.9428 64.2766 76.1445 69.9765 71.3373 75.5394L74.8605 77.1624C78.9015 73.3056 81.0586 71.7873 86.413 69.9022C84.8099 74.1982 83.0601 77.799 82.6024 77.8586C82.1447 77.9181 86.4147 78.1905 86.4147 78.1905C90.8124 69.8394 90.7172 65.0808 89.4233 65.1287Z" fill="#398D8D" stroke="#398D8D" stroke-width="0.477266"/>
<path d="M61.9455 87.9889C64.5444 87.9889 66.4519 88.5254 67.6679 89.5983C68.9078 90.6713 69.5277 92.1853 69.5277 94.1405C69.5277 95.285 69.2893 96.3579 68.8124 97.3593C68.3355 98.3608 67.5248 99.1834 66.3804 99.8271C65.2597 100.447 63.7338 100.757 61.8024 100.757H60.1215V107.517H55.2932V87.9889H61.9455ZM61.8382 91.7442H60.1215V96.9659H61.3017C61.9694 96.9659 62.5535 96.8706 63.0542 96.6798C63.5549 96.4891 63.9483 96.191 64.2345 95.7857C64.5206 95.3803 64.6636 94.8558 64.6636 94.212C64.6636 93.4014 64.4371 92.7933 63.9841 92.388C63.5311 91.9588 62.8158 91.7442 61.8382 91.7442ZM72.4702 107.517L79.3013 87.9889H85.3814L92.284 107.517H87.1696L85.8463 103.332H78.9437L77.6561 107.517H72.4702ZM79.9808 99.4695H84.7733L83.6289 95.5711C83.5335 95.2373 83.4024 94.7962 83.2355 94.2478C83.0686 93.6994 82.9016 93.1391 82.7347 92.5668C82.5917 91.9708 82.4605 91.482 82.3413 91.1005C82.2698 91.482 82.1625 91.9708 82.0194 92.5668C81.8764 93.1629 81.7214 93.7352 81.5545 94.2836C81.4114 94.832 81.2922 95.2611 81.1969 95.5711L79.9808 99.4695ZM104.292 91.4939C103.315 91.4939 102.468 91.7442 101.753 92.245C101.061 92.7457 100.537 93.461 100.179 94.3909C99.8215 95.3207 99.6426 96.4414 99.6426 97.7528C99.6426 99.7556 100.024 101.293 100.787 102.366C101.55 103.416 102.754 103.94 104.399 103.94C105.258 103.94 106.104 103.833 106.939 103.618C107.797 103.404 108.667 103.129 109.55 102.796V106.766C108.667 107.123 107.773 107.385 106.867 107.552C105.961 107.719 104.972 107.803 103.899 107.803C101.777 107.803 100.024 107.385 98.6412 106.551C97.2822 105.693 96.2807 104.512 95.637 103.01C94.9932 101.484 94.6713 99.7198 94.6713 97.717C94.6713 95.738 95.0409 93.9855 95.78 92.4595C96.543 90.9336 97.6398 89.7414 99.0704 88.883C100.501 88.0247 102.253 87.5955 104.328 87.5955C105.305 87.5955 106.307 87.7147 107.332 87.9532C108.381 88.1916 109.383 88.5373 110.336 88.9903L108.87 92.7099C108.107 92.3761 107.344 92.09 106.581 91.8515C105.842 91.6131 105.079 91.4939 104.292 91.4939ZM126.968 107.517H115.201V87.9889H126.968V91.7442H120.029V95.4996H126.503V99.2549H120.029V103.726H126.968V107.517ZM139.371 107.803C137.63 107.803 136.08 107.505 134.721 106.909C133.362 106.313 132.289 105.502 131.503 104.477C130.716 103.427 130.275 102.259 130.179 100.972H136.224C136.295 101.663 136.617 102.223 137.189 102.653C137.761 103.082 138.465 103.296 139.299 103.296C140.062 103.296 140.646 103.153 141.052 102.867C141.481 102.557 141.696 102.164 141.696 101.687C141.696 101.115 141.398 100.697 140.801 100.435C140.205 100.149 139.24 99.8391 137.904 99.5052C136.474 99.1714 135.282 98.8257 134.328 98.4681C133.374 98.0866 132.552 97.5024 131.86 96.7156C131.169 95.9049 130.823 94.82 130.823 93.461C130.823 92.3165 131.133 91.2793 131.753 90.3494C132.397 89.3957 133.327 88.6446 134.543 88.0962C135.782 87.5478 137.249 87.2736 138.942 87.2736C141.445 87.2736 143.412 87.8935 144.843 89.1334C146.297 90.3733 147.132 92.0184 147.346 94.069H141.696C141.6 93.3775 141.29 92.8291 140.766 92.4238C140.265 92.0184 139.597 91.8158 138.763 91.8158C138.048 91.8158 137.499 91.9588 137.118 92.245C136.736 92.5072 136.545 92.8768 136.545 93.3537C136.545 93.9259 136.843 94.3551 137.44 94.6412C138.059 94.9273 139.013 95.2134 140.301 95.4996C141.779 95.8811 142.983 96.2626 143.913 96.644C144.843 97.0017 145.654 97.5978 146.345 98.4323C147.06 99.243 147.43 100.34 147.454 101.723C147.454 102.891 147.12 103.94 146.452 104.87C145.809 105.776 144.867 106.491 143.627 107.016C142.411 107.54 140.992 107.803 139.371 107.803Z" fill="#349F7F"/>
<defs>
<filter id="filter0_d_1145_560" x="0.00195312" y="0.549316" width="166" height="201" filterUnits="userSpaceOnUse" color-interpolation-filters="sRGB">
<feFlood flood-opacity="0" result="BackgroundImageFix"/>
<feColorMatrix in="SourceAlpha" type="matrix" values="0 0 0 0 0 0 0 0 0 0 0 0 0 0 0 0 0 0 127 0" result="hardAlpha"/>
<feOffset dy="4"/>
<feGaussianBlur stdDeviation="2"/>
<feComposite in2="hardAlpha" operator="out"/>
<feColorMatrix type="matrix" values="0 0 0 0 0 0 0 0 0 0 0 0 0 0 0 0 0 0 0.25 0"/>
<feBlend mode="normal" in2="BackgroundImageFix" result="effect1_dropShadow_1145_560"/>
<feBlend mode="normal" in="SourceGraphic" in2="effect1_dropShadow_1145_560" result="shape"/>
</filter>
<linearGradient id="paint0_linear_1145_560" x1="17" y1="97" x2="151" y2="22" gradientUnits="userSpaceOnUse">
<stop stop-color="#D9D9D9"/>
<stop offset="0.699748" stop-color="#C0B6E1"/>
<stop offset="0.873287" stop-color="#9479EF"/>
</linearGradient>
</defs>
</svg>
