<svg width="506" height="298" viewBox="0 0 506 298" fill="none" xmlns="http://www.w3.org/2000/svg">
<path d="M279.5 214C169.5 214 85 200.5 0 298C0.833344 254 2.10001 168.821 0.5 141.221C-1.10001 113.621 24.1667 104.388 37 103.221C169 103.054 440.1 102.821 468.5 103.221C496.9 103.621 505.333 128.721 506 141.221L505.5 277C481.167 280.833 450.716 214 279.5 214Z" fill="#65D5BF" fill-opacity="0.56"/>
<path d="M227.5 158.5C307.836 88.4193 464.5 159.667 506 205.5C505.167 161.5 503.9 66.6 505.5 39C507.1 11.4 481.833 2.16661 469 0.999913C337 0.833247 65.9 0.599913 37.5 0.999913C9.1 1.39991 0.666667 26.4999 0 38.9999L0.5 205.5C24.8333 209.333 204 179 227.5 158.5Z" fill="#53B5B5"/>
</svg>
