<svg width="1440" height="1024" viewBox="0 0 1440 1024" fill="none" xmlns="http://www.w3.org/2000/svg">
<g clip-path="url(#clip0_421_185)">
<rect width="1440" height="1024" fill="#046262" fill-opacity="0.9"/>
<path d="M154.319 1167.78C161.584 1172.66 233.58 1069.49 246.95 1001.34H218.048H215.13C200.441 1051.83 190.302 1074.29 157.259 1114.4C151.44 1071.4 148.217 1016.49 151.469 1013.91C154.722 1011.32 119.582 1039.03 119.582 1039.03C121.087 1128.45 144.617 1174.09 154.319 1167.78Z" fill="#398D8D"/>
<path d="M218.048 1001.34H215.13M215.13 1001.34H246.95C233.58 1069.49 161.584 1172.66 154.319 1167.78C144.617 1174.09 121.087 1128.45 119.582 1039.03C119.582 1039.03 154.722 1011.32 151.469 1013.91C148.217 1016.49 151.44 1071.4 157.259 1114.4C190.302 1074.29 200.441 1051.83 215.13 1001.34Z" stroke="#398D8D" stroke-width="4"/>
<path d="M348.856 1164.23C357.391 1164.68 374.259 1036.58 355.5 969.94L329.386 985.642L327.67 986.674C337.38 1038.55 338.549 1063.53 327.572 1115.99C303.271 1081.45 275.913 1035.11 277.602 1031.14C279.292 1027.17 260.939 1069.88 260.939 1069.88C302.217 1147.31 343.19 1174.85 348.856 1164.23Z" fill="#398D8D"/>
<path d="M329.386 985.642L327.67 986.674M327.67 986.674L355.5 969.94C374.259 1036.58 357.391 1164.68 348.856 1164.23C343.19 1174.85 302.217 1147.31 260.939 1069.88C260.939 1069.88 279.292 1027.17 277.602 1031.14C275.913 1035.11 303.271 1081.45 327.572 1115.99C338.549 1063.53 337.38 1038.55 327.67 986.674Z" stroke="#398D8D" stroke-width="4"/>
<path d="M510.005 1061.39C510.005 1051.59 504.624 1001.34 475.676 954.236L440.94 954.236C452.519 979.359 466.992 991.92 472.028 1027.29C436.611 1007 393.858 977.393 393.856 973.019C393.853 968.645 393.714 1015.77 393.714 1015.77C461.127 1067.26 508.969 1073.61 510.005 1061.39Z" fill="#398D8D" stroke="#398D8D" stroke-width="4"/>
<path d="M287.514 963.657L293.305 957.344C21.2001 1017.04 -30.9036 558.526 290.41 589.928L284.619 583.679" stroke="#3AB155" stroke-width="26"/>
<path d="M-16.0886 1060.69C-12.487 1069.1 99.9045 1025.77 145.573 976.776L118.98 957.821C81.1512 991.26 61.3093 1003.99 13.3906 1017.83C30.2893 978.432 55.3907 930.619 59.4174 930.396C63.4441 930.173 20.0516 932.397 20.0516 932.397C-23.9565 1008.03 -27.3896 1060.19 -16.0886 1060.69Z" fill="#398D8D"/>
<path d="M122.869 960.527L118.98 957.821M118.98 957.821L145.573 976.776C99.9045 1025.77 -12.487 1069.1 -16.0886 1060.69C-27.3896 1060.19 -23.9565 1008.03 20.0516 932.397C20.0516 932.397 63.4441 930.173 59.4174 930.396C55.3907 930.619 30.2893 978.432 13.3906 1017.83C61.3093 1003.99 81.1512 991.26 118.98 957.821Z" stroke="#398D8D" stroke-width="4"/>
<path d="M-120.43 888.324C-120.767 897.587 -2.54144 914.749 58.7144 893.809L43.043 863.766C-4.68988 874.76 -27.7015 876.25 -76.1539 864.806C-44.5295 838.139 -2.06373 808.05 1.61201 809.848C5.28775 811.645 -34.2471 792.115 -34.2471 792.115C-105.248 837.58 -130.269 882.271 -120.43 888.324Z" fill="#398D8D"/>
<path d="M43.0359 863.768L43.043 863.766M43.043 863.766L58.7144 893.809C-2.54144 914.749 -120.767 897.587 -120.43 888.324C-130.269 882.271 -105.248 837.58 -34.2471 792.115C-34.2471 792.115 5.28775 811.645 1.61201 809.848C-2.06373 808.05 -44.5295 838.139 -76.1539 864.806C-27.7015 876.25 -4.68988 874.76 43.043 863.766Z" stroke="#398D8D" stroke-width="4"/>
<path d="M-118.402 674.712C-123.372 682.253 -33.2535 767.024 28.5403 786.013L31.3628 751.541C-14.0945 732.295 -34.7936 719.86 -69.4951 681.433C-29.5668 677.984 21.1537 678.135 23.3158 681.827C25.478 685.519 2.32268 645.645 2.32268 645.645C-80.0292 641.346 -123.562 663.792 -118.402 674.712Z" fill="#398D8D"/>
<path d="M30.6509 751.546L31.3628 751.541M31.3628 751.541L28.5403 786.013C-33.2535 767.024 -123.372 682.253 -118.402 674.712C-123.562 663.792 -80.0292 641.346 2.32268 645.645C2.32268 645.645 25.478 685.519 23.3158 681.827C21.1537 678.135 -29.5668 677.984 -69.4951 681.433C-34.7936 719.86 -14.0945 732.295 31.3628 751.541Z" stroke="#398D8D" stroke-width="4"/>
<path d="M-31.8451 486.821C-39.448 491.053 4.84502 611.199 51.7479 658.797L67.5205 630.403L68.1714 629.231C35.8974 589.526 23.3981 568.513 8.78596 517.107C45.732 533.891 90.7503 559.239 91.1126 563.596C91.4748 567.952 87.7364 521 87.7364 521C16.3555 476.241 -31.8185 474.551 -31.8451 486.821Z" fill="#398D8D"/>
<path d="M67.5205 630.403L68.1714 629.231M68.1714 629.231L51.7479 658.797C4.84502 611.199 -39.448 491.053 -31.8451 486.821C-31.8185 474.551 16.3555 476.241 87.7364 521C87.7364 521 91.4748 567.952 91.1126 563.596C90.7503 559.239 45.732 533.891 8.78596 517.107C23.3981 568.513 35.8974 589.526 68.1714 629.231Z" stroke="#398D8D" stroke-width="4"/>
<path d="M140.679 383.814C132.183 382.821 108.386 509.619 123.492 577.339L152.204 562.403C145.328 509.994 145.498 484.997 159.306 433.33C181.688 469.366 206.481 517.368 204.579 521.225C202.677 525.081 223.318 483.615 223.318 483.615C186.318 403.685 146.912 373.575 140.679 383.814Z" fill="#398D8D" stroke="#398D8D" stroke-width="4"/>
<path d="M330.596 375.763C323.457 370.669 248.885 471.661 233.801 539.387L267.252 540.333C283.209 490.307 292.268 468.155 326.311 429.041C331.042 472.19 332.879 527.178 329.563 529.665C326.246 532.153 362.072 505.499 362.072 505.499C362.824 416.06 340.453 369.745 330.596 375.763Z" fill="#398D8D"/>
<path d="M265.631 540.332L267.252 540.333M267.252 540.333L233.801 539.387C248.885 471.661 323.457 370.669 330.596 375.763C340.453 369.745 362.824 416.06 362.072 505.499C362.072 505.499 326.246 532.153 329.563 529.665C332.879 527.178 331.042 472.19 326.311 429.041C292.268 468.155 283.209 490.307 267.252 540.333Z" stroke="#398D8D" stroke-width="4"/>
<path d="M503.401 472.46C499.203 464.385 387.405 518.401 345.411 571.118L376.188 586.498C411.488 549.949 430.331 535.561 477.105 517.697C463.1 558.408 447.815 592.531 443.817 593.096C439.819 593.66 477.12 596.241 477.12 596.241C515.535 517.101 514.704 472.005 503.401 472.46Z" fill="#398D8D" stroke="#398D8D" stroke-width="4"/>
<path d="M1372.32 536.781C1379.58 541.661 1451.58 438.492 1464.95 370.344H1436.05H1433.13C1418.44 420.825 1408.3 443.285 1375.26 483.395C1369.44 440.403 1366.22 385.49 1369.47 382.905C1372.72 380.32 1337.58 408.028 1337.58 408.028C1339.09 497.455 1362.62 543.089 1372.32 536.781Z" fill="#398D8D"/>
<path d="M1436.05 370.344H1433.13M1433.13 370.344H1464.95C1451.58 438.492 1379.58 541.661 1372.32 536.78C1362.62 543.089 1339.09 497.455 1337.58 408.028C1337.58 408.028 1372.72 380.32 1369.47 382.905C1366.22 385.49 1369.44 440.403 1375.26 483.395C1408.3 443.285 1418.44 420.825 1433.13 370.344Z" stroke="#398D8D" stroke-width="4"/>
<path d="M1505.51 332.657L1511.31 326.344C1239.2 386.042 1187.1 -72.4742 1508.41 -41.0725L1502.62 -47.3213" stroke="#3AB155" stroke-width="26"/>
<path d="M1201.91 429.694C1205.51 438.101 1317.9 394.766 1363.57 345.776L1336.98 326.821C1299.15 360.26 1279.31 372.991 1231.39 386.829C1248.29 347.432 1273.39 299.619 1277.42 299.396C1281.44 299.173 1238.05 301.397 1238.05 301.397C1194.04 377.032 1190.61 429.187 1201.91 429.694Z" fill="#398D8D"/>
<path d="M1340.87 329.527L1336.98 326.821M1336.98 326.821L1363.57 345.776C1317.9 394.766 1205.51 438.101 1201.91 429.694C1190.61 429.187 1194.04 377.032 1238.05 301.397C1238.05 301.397 1281.44 299.173 1277.42 299.396C1273.39 299.619 1248.29 347.432 1231.39 386.829C1279.31 372.991 1299.15 360.26 1336.98 326.821Z" stroke="#398D8D" stroke-width="4"/>
<path d="M1097.57 257.324C1097.23 266.587 1215.46 283.749 1276.71 262.809L1261.04 232.766C1213.31 243.76 1190.3 245.25 1141.85 233.806C1173.47 207.139 1215.94 177.05 1219.61 178.848C1223.29 180.645 1183.75 161.115 1183.75 161.115C1112.75 206.58 1087.73 251.271 1097.57 257.324Z" fill="#398D8D"/>
<path d="M1261.04 232.768L1261.04 232.766M1261.04 232.766L1276.71 262.809C1215.46 283.749 1097.23 266.587 1097.57 257.324C1087.73 251.271 1112.75 206.58 1183.75 161.115C1183.75 161.115 1223.29 180.645 1219.61 178.848C1215.94 177.05 1173.47 207.139 1141.85 233.806C1190.3 245.25 1213.31 243.76 1261.04 232.766Z" stroke="#398D8D" stroke-width="4"/>
<path d="M1099.6 43.7119C1094.63 51.2526 1184.75 136.024 1246.54 155.013L1249.36 120.541C1203.91 101.295 1183.21 88.86 1148.5 50.4329C1188.43 46.9844 1239.15 47.1352 1241.32 50.8271C1243.48 54.519 1220.32 14.6454 1220.32 14.6454C1137.97 10.3465 1094.44 32.7924 1099.6 43.7119Z" fill="#398D8D"/>
<path d="M1248.65 120.546L1249.36 120.541M1249.36 120.541L1246.54 155.013C1184.75 136.024 1094.63 51.2526 1099.6 43.7119C1094.44 32.7924 1137.97 10.3465 1220.32 14.6454C1220.32 14.6454 1243.48 54.519 1241.32 50.8271C1239.15 47.1352 1188.43 46.9844 1148.5 50.4329C1183.21 88.86 1203.91 101.295 1249.36 120.541Z" stroke="#398D8D" stroke-width="4"/>
<path d="M1186.15 -144.179C1178.55 -139.947 1222.85 -19.8006 1269.75 27.7966L1285.52 -0.597202L1286.17 -1.76902C1253.9 -41.4736 1241.4 -62.4867 1226.79 -113.893C1263.73 -97.1087 1308.75 -71.7606 1309.11 -67.4043C1309.47 -63.0479 1305.74 -110 1305.74 -110C1234.36 -154.759 1186.18 -156.449 1186.15 -144.179Z" fill="#398D8D"/>
<path d="M1285.52 -0.5972L1286.17 -1.76902M1286.17 -1.76902L1269.75 27.7966C1222.85 -19.8006 1178.55 -139.947 1186.15 -144.179C1186.18 -156.449 1234.36 -154.759 1305.74 -110C1305.74 -110 1309.47 -63.0479 1309.11 -67.4043C1308.75 -71.7606 1263.73 -97.1087 1226.79 -113.893C1241.4 -62.4867 1253.9 -41.4736 1286.17 -1.76902Z" stroke="#398D8D" stroke-width="4"/>
</g>
<defs>
<clipPath id="clip0_421_185">
<rect width="1440" height="1024" fill="white"/>
</clipPath>
</defs>
</svg>
